# xmcd
#
# Track frame offsets:
#	150
#	20250
#	40285
#	59654
#	84458
#	97856
#	111105
#	121826
#	137925
#	157792
#	177972
#	190647
#	232500
#	248556
#	269451
#	294135
#	311864
#	329004
#
# Disc length: 4452 seconds
#
# Revision: 0
# Processed by: cddbd v1.5.2PL0 Copyright (c) Steve Scherf et al.
# Submitted via: EasyCDDAExtractor 8.1.2.3
#
DISCID=e9116212
DTITLE=Krayzie Bone - Too raw for retail
DYEAR=2006
DGENRE=Rap
TTITLE0=Whose House (Feat. Keef-G, Asu
TTITLE1=Zonin'
TTITLE2=In Da Game (Feat. Lil' D and Yay
TTITLE3=My Hustlers (Feat. Keef-G, You
TTITLE4=Everybody Wanna Thug
TTITLE5=As We Roll
TTITLE6=Bone Thug Party (Feat. Thuglin
TTITLE7=That's the Devil (Feat. Keef-G
TTITLE8=I Get Around
TTITLE9=This Beef (Feat. K-Mont and Lare
TTITLE10=Don't Fuck Around
TTITLE11=I Can Make You (Feat. Kokane &
TTITLE12=Average Thug
TTITLE13=For the Love (Feat. Thugline)
TTITLE14=4 Ever Bone Thug (Feat. Wish B
TTITLE15=Bringin' Me Up (Feat. Ron Isle
TTITLE16=Blunts to the Brain (Feat. Kee
TTITLE17=Shut the Club Down Remix (Feat
EXTD=
EXTT0=
EXTT1=
EXTT2=
EXTT3=
EXTT4=
EXTT5=
EXTT6=
EXTT7=
EXTT8=
EXTT9=
EXTT10=
EXTT11=
EXTT12=
EXTT13=
EXTT14=
EXTT15=
EXTT16=
EXTT17=
PLAYORDER=
